# xmcd
# 
# Track frame offsets:
#     150
#     20436
#     35208
#     55832
#     70972
#     88747
#     107149
#     134543
# 
# Disc length: 2041
# 
# Revision: 1
# Processed by: cddbd v1.5.2PL0 Copyright (c) Steve Scherf et al.
# Submitted via: fre:ac v1.1beta2
# 
DISCID=7207f708
DTITLE=Steep Canyon Rangers - North Carolina Songbook (Live from Merlefest - April 28, 2019)
DYEAR=2019
DGENRE=12.2-Bluegrass
TTITLE0=Stand By Me (Ben E. King)
TTITLE1=Don't Let Your Deal Go Down (Earl Scruggs/Charlie Poole)
TTITLE2=Blue Monk (Theolonious Monk)
TTITLE3=Drunkard's Hiccups (Tommy Jerrell)
TTITLE4=Shake Sugaree (Elizabeth Cotten)
TTITLE5=Sweet Baby James (James Taylor)
TTITLE6=I've Endured (Ola Belle Reed)
TTITLE7=Your Lone Journey (Doc Watson)
EXTD=
EXTT0=
EXTT1=
EXTT2=
EXTT3=
EXTT4=
EXTT5=
EXTT6=
EXTT7=
PLAYORDER=
